<svg width="414" height="177" viewBox="0 0 414 177" fill="none" xmlns="http://www.w3.org/2000/svg">
<g clip-path="url(#clip0_3732_32525)">
<path d="M236.522 86.6203C248.763 86.6203 258.686 76.679 258.686 64.4156C258.686 52.1523 248.763 42.2109 236.522 42.2109C224.282 42.2109 214.358 52.1523 214.358 64.4156C214.358 76.679 224.282 86.6203 236.522 86.6203Z" fill="#F8C028"/>
<path d="M210.322 75.3944C208.719 76.4405 205.096 78.4962 201.733 78.4962C200.527 78.4962 199.363 78.2295 198.329 77.5547C196.81 76.5609 193.927 75.4833 191.207 75.4833H158.909C158.089 75.4833 157.29 75.1538 156.716 74.5679C156.131 73.9821 155.818 73.187 155.823 72.3658L156.194 26.4185L156.22 23.437C156.241 21.7422 157.619 20.377 159.306 20.377H159.342C160.355 20.3926 161.259 20.8896 161.807 21.6585C162.183 22.1711 162.397 22.804 162.392 23.4893L162.021 69.3005H191.207C195.41 69.3005 199.394 70.9064 201.587 72.3082C202.73 72.4808 206.26 70.8279 207.341 69.9648C207.706 69.6771 208.113 69.4836 208.542 69.3894C208.604 69.8288 208.677 70.2682 208.776 70.7024C209.001 71.8061 209.319 72.8836 209.706 73.9298C209.889 74.4215 210.097 74.9132 210.317 75.3944H210.322Z" fill="#F8C028"/>
<path d="M236.522 38.5228C246.912 38.5228 255.365 30.0541 255.365 19.6449C255.365 9.2356 246.912 0.761719 236.522 0.761719C226.132 0.761719 217.679 9.23037 217.679 19.6396C217.679 30.0489 226.132 38.5176 236.522 38.5176V38.5228ZM236.522 4.19312C245.022 4.19312 251.94 11.1239 251.94 19.6396C251.94 28.1554 245.022 35.0862 236.522 35.0862C228.022 35.0862 221.104 28.1554 221.104 19.6396C221.104 11.1239 228.022 4.19312 236.522 4.19312Z" fill="black"/>
<path d="M236.522 40.4961C223.359 40.4961 212.646 51.2244 212.646 64.4165C212.646 77.6085 223.354 88.3369 236.522 88.3369C249.69 88.3369 260.398 77.6085 260.398 64.4165C260.398 51.2244 249.69 40.4961 236.522 40.4961ZM236.522 84.9003C225.244 84.9003 216.071 75.7098 216.071 64.4113C216.071 53.1128 225.244 43.9223 236.522 43.9223C247.8 43.9223 256.973 53.1128 256.973 64.4113C256.973 75.7098 247.8 84.9003 236.522 84.9003Z" fill="black"/>
<path d="M209.711 73.9304C209.664 73.9513 209.622 73.9775 209.581 74.0141C208.27 75.0288 204.887 76.959 202.741 76.959C201.603 76.959 200.245 76.3052 198.809 75.6147C197.081 74.7778 195.123 73.8362 193.014 73.8362H159.196C158.251 73.8362 157.484 73.0673 157.484 72.1205V24.3634C157.484 23.6102 156.998 22.9616 156.314 22.7367C156.095 22.6634 155.849 22.6268 155.594 22.653C154.701 22.7419 154.059 23.5579 154.059 24.4576V75.5519C154.059 76.4987 154.826 77.2676 155.771 77.2676H193.009C194.34 77.2676 195.786 77.9633 197.321 78.7009C199.039 79.5326 200.825 80.3904 202.741 80.3904C205.832 80.3904 209.513 78.2562 211.183 77.0898C210.875 76.5405 210.588 75.9704 210.322 75.395C210.103 74.9138 209.899 74.4273 209.711 73.9304Z" fill="black"/>
<path d="M163.164 69.929H189.876C194.476 69.929 196.789 71.1216 198.653 72.0789C199.984 72.7641 201.237 73.4127 202.84 73.4127C205.539 73.4127 206.986 72.1992 208.145 71.221C208.359 71.038 208.563 70.8653 208.777 70.7084C208.683 70.2743 208.604 69.8349 208.542 69.3955C208.437 68.6998 208.364 67.9936 208.328 67.2718C207.931 67.2666 207.518 67.3816 207.174 67.6222C206.709 67.9466 206.302 68.2866 205.942 68.5899C204.95 69.4216 204.292 69.9761 202.835 69.9761C202.052 69.9761 201.284 69.5786 200.219 69.0293C198.141 67.957 195.301 66.4976 189.871 66.4976H166.574C165.629 66.4976 164.861 65.7287 164.861 64.7819V22.6061C164.861 21.6593 165.629 20.8904 166.574 20.8904H189.881C193.995 20.8904 198.658 24.2015 201.128 26.6913C201.128 26.6913 201.129 26.6966 201.133 26.707V62.9982C201.133 64.081 202.135 64.9284 203.258 64.6669C204.046 64.4838 204.558 63.7149 204.558 62.9041L204.579 26.7489V26.7332C207.701 23.3645 210.714 21.607 213.549 21.0682C214.478 20.8904 215.089 19.9907 214.912 19.0648C214.739 18.1338 213.841 17.5218 212.912 17.6944C209.649 18.3168 206.307 20.3255 202.971 23.6732C202.965 23.6784 202.95 23.6784 202.945 23.6732C200.057 20.9532 195.003 17.459 189.881 17.459H163.164C162.679 17.459 162.24 17.6578 161.922 17.9821C161.614 18.2959 161.426 18.7248 161.426 19.1956V68.1924C161.426 68.6579 161.603 69.0764 161.911 69.3955C162.219 69.725 162.663 69.929 163.159 69.929H163.164Z" fill="black"/>
<path d="M192.852 29.127H170.704C169.759 29.127 168.991 29.8959 168.991 30.8427C168.991 31.7894 169.759 32.5584 170.704 32.5584H192.857C193.802 32.5584 194.57 31.7894 194.57 30.8427C194.57 29.8959 193.802 29.127 192.857 29.127H192.852Z" fill="black"/>
<path d="M192.852 37.1367H170.704C169.759 37.1367 168.991 37.9056 168.991 38.8524C168.991 39.7992 169.759 40.5681 170.704 40.5681H192.857C193.802 40.5681 194.57 39.7992 194.57 38.8524C194.57 37.9056 193.802 37.1367 192.857 37.1367H192.852Z" fill="black"/>
<path d="M192.852 45.1445H170.704C169.759 45.1445 168.991 45.9135 168.991 46.8602C168.991 47.807 169.759 48.5759 170.704 48.5759H192.857C193.802 48.5759 194.57 47.807 194.57 46.8602C194.57 45.9135 193.802 45.1445 192.857 45.1445H192.852Z" fill="black"/>
<path d="M192.852 53.1543H170.704C169.759 53.1543 168.991 53.9232 168.991 54.87C168.991 55.8168 169.759 56.5857 170.704 56.5857H192.857C193.802 56.5857 194.57 55.8168 194.57 54.87C194.57 53.9232 193.802 53.1543 192.857 53.1543H192.852Z" fill="black"/>
<path d="M244.834 53.1274C243.508 52.0917 241.968 51.6366 240.835 51.5268L240.616 51.5059H240.506H232.549C231.661 51.5059 230.93 52.1806 230.847 53.0489L230.836 53.2268V63.181H227.364C226.419 63.1757 225.646 63.9394 225.646 64.8862C225.646 65.7754 226.315 66.5078 227.181 66.5967L227.359 66.6071H230.836V67.8939H227.239C226.294 67.8939 225.526 68.6628 225.526 69.6096C225.526 70.5564 226.294 71.3253 227.239 71.3253H230.836V75.6146C230.836 76.5613 231.604 77.3303 232.549 77.3303C233.494 77.3303 234.261 76.5613 234.261 75.6146V71.3253H239.143L239.315 71.3149C240.182 71.2259 240.856 70.4936 240.856 69.6044C240.856 68.7152 240.182 67.9828 239.315 67.8992L239.143 67.8887H234.261V66.6124C237.123 66.6124 239.759 66.6124 240.532 66.6019L240.788 66.5915C242.098 66.4973 243.696 65.8487 244.986 64.6979C246.427 63.4111 247.555 61.4391 247.513 58.7871C247.471 56.1403 246.317 54.2939 244.829 53.1326L244.834 53.1274ZM242.714 62.1296C241.926 62.8305 241.033 63.1234 240.569 63.1653H240.48C239.728 63.181 237.112 63.181 234.261 63.181V54.9373H240.428C241.023 54.9843 241.963 55.2406 242.73 55.837C243.44 56.3914 244.067 57.2859 244.093 58.8394C244.119 60.3877 243.492 61.4391 242.714 62.1296Z" fill="black"/>
<path d="M231.04 21.3612H234.809V25.1379C234.809 26.0846 235.577 26.8536 236.522 26.8536C237.467 26.8536 238.234 26.0846 238.234 25.1379V21.3612H242.004C242.949 21.3612 243.717 20.5923 243.717 19.6455C243.717 18.6988 242.949 17.9298 242.004 17.9298H238.234V14.1532C238.234 13.2064 237.467 12.4375 236.522 12.4375C235.577 12.4375 234.809 13.2064 234.809 14.1532V17.9298H231.04C230.095 17.9298 229.327 18.6988 229.327 19.6455C229.327 20.5923 230.095 21.3612 231.04 21.3612Z" fill="black"/>
</g>
<path d="M28.0303 140.733V115.912H16.0202L15.87 121.016C15.7699 123.185 15.6198 125.236 15.4197 127.171C15.2528 129.106 14.986 130.875 14.619 132.476C14.252 134.044 13.7683 135.378 13.1678 136.479C12.6006 137.58 11.8833 138.364 11.0159 138.831L2.35864 137.73C3.55965 137.764 4.54381 137.347 5.31113 136.479C6.1118 135.612 6.74567 134.394 7.21273 132.826C7.67979 131.225 8.0134 129.357 8.21357 127.222C8.4471 125.086 8.61391 122.768 8.714 120.266L9.11433 109.306H36.037V140.733H28.0303ZM1.20766 151.592L1.25771 137.73H40.9412V151.592H33.4348V144.336H8.714V151.592H1.20766ZM57.615 144.736C54.7459 144.736 52.1938 144.136 49.9585 142.935C47.7567 141.734 46.0052 140.099 44.7041 138.031C43.4364 135.929 42.8025 133.544 42.8025 130.875C42.8025 128.172 43.4364 125.787 44.7041 123.719C46.0052 121.617 47.7567 119.982 49.9585 118.814C52.1938 117.613 54.7459 117.013 57.615 117.013C60.4507 117.013 62.9862 117.613 65.2214 118.814C67.4566 119.982 69.2081 121.6 70.4759 123.669C71.7436 125.737 72.3775 128.139 72.3775 130.875C72.3775 133.544 71.7436 135.929 70.4759 138.031C69.2081 140.099 67.4566 141.734 65.2214 142.935C62.9862 144.136 60.4507 144.736 57.615 144.736ZM57.615 138.331C58.9161 138.331 60.0838 138.031 61.118 137.43C62.1522 136.83 62.9695 135.979 63.57 134.878C64.1705 133.744 64.4708 132.409 64.4708 130.875C64.4708 129.307 64.1705 127.972 63.57 126.871C62.9695 125.77 62.1522 124.92 61.118 124.319C60.0838 123.719 58.9161 123.418 57.615 123.418C56.3139 123.418 55.1463 123.719 54.112 124.319C53.0778 124.92 52.2438 125.77 51.6099 126.871C51.0094 127.972 50.7092 129.307 50.7092 130.875C50.7092 132.409 51.0094 133.744 51.6099 134.878C52.2438 135.979 53.0778 136.83 54.112 137.43C55.1463 138.031 56.3139 138.331 57.615 138.331ZM77.2464 144.336V117.413H85.4033L95.5619 135.829H92.3091L103.168 117.413H110.474L110.575 144.336H103.519V125.42L104.72 126.221L95.4618 141.734H92.159L82.8511 125.67L84.3024 125.32V144.336H77.2464ZM133.665 144.336V139.082L133.165 137.931V128.523C133.165 126.855 132.648 125.553 131.614 124.619C130.613 123.685 129.062 123.218 126.96 123.218C125.525 123.218 124.107 123.452 122.706 123.919C121.338 124.352 120.171 124.953 119.203 125.72L116.401 120.266C117.869 119.231 119.637 118.431 121.705 117.864C123.774 117.296 125.876 117.013 128.011 117.013C132.114 117.013 135.3 117.98 137.569 119.915C139.837 121.85 140.972 124.87 140.972 128.973V144.336H133.665ZM125.459 144.736C123.357 144.736 121.555 144.386 120.054 143.685C118.553 142.951 117.402 141.967 116.601 140.733C115.8 139.499 115.4 138.114 115.4 136.579C115.4 134.978 115.784 133.577 116.551 132.376C117.352 131.175 118.603 130.241 120.304 129.573C122.006 128.873 124.224 128.523 126.96 128.523H134.116V133.076H127.811C125.976 133.076 124.708 133.377 124.007 133.977C123.34 134.578 123.006 135.328 123.006 136.229C123.006 137.23 123.39 138.031 124.157 138.631C124.958 139.198 126.042 139.482 127.41 139.482C128.711 139.482 129.879 139.182 130.913 138.581C131.947 137.947 132.698 137.03 133.165 135.829L134.366 139.432C133.799 141.167 132.765 142.484 131.263 143.385C129.762 144.286 127.827 144.736 125.459 144.736ZM165.618 137.931L163.917 139.732V117.413H171.723V139.732L169.922 137.931H182.332L180.581 139.732V117.413H188.337V144.336H147.253V117.413H155.009V139.732L153.258 137.931H165.618ZM214.395 144.336L205.387 131.575L211.742 127.822L223.602 144.336H214.395ZM195.328 144.336V117.413H203.135V144.336H195.328ZM200.833 134.127V127.872H210.241V134.127H200.833ZM212.493 131.775L205.187 130.975L214.645 117.413H222.952L212.493 131.775ZM242.56 144.336V139.082L242.06 137.931V128.523C242.06 126.855 241.543 125.553 240.508 124.619C239.507 123.685 237.956 123.218 235.854 123.218C234.42 123.218 233.002 123.452 231.601 123.919C230.233 124.352 229.065 124.953 228.098 125.72L225.295 120.266C226.763 119.231 228.532 118.431 230.6 117.864C232.668 117.296 234.77 117.013 236.905 117.013C241.009 117.013 244.195 117.98 246.463 119.915C248.732 121.85 249.866 124.87 249.866 128.973V144.336H242.56ZM234.353 144.736C232.251 144.736 230.45 144.386 228.949 143.685C227.447 142.951 226.296 141.967 225.496 140.733C224.695 139.499 224.295 138.114 224.295 136.579C224.295 134.978 224.678 133.577 225.446 132.376C226.246 131.175 227.497 130.241 229.199 129.573C230.9 128.873 233.119 128.523 235.854 128.523H243.01V133.076H236.705C234.87 133.076 233.602 133.377 232.902 133.977C232.235 134.578 231.901 135.328 231.901 136.229C231.901 137.23 232.285 138.031 233.052 138.631C233.853 139.198 234.937 139.482 236.305 139.482C237.606 139.482 238.774 139.182 239.808 138.581C240.842 137.947 241.593 137.03 242.06 135.829L243.261 139.432C242.694 141.167 241.659 142.484 240.158 143.385C238.657 144.286 236.722 144.736 234.353 144.736ZM270.419 144.336V109.306H302.346V144.336H294.29V114.06L296.141 115.912H276.625L278.476 114.06V144.336H270.419ZM306.526 144.286L306.926 137.88C307.127 137.914 307.327 137.947 307.527 137.981C307.727 137.981 307.911 137.981 308.077 137.981C309.012 137.981 309.745 137.714 310.279 137.18C310.813 136.646 311.213 135.929 311.48 135.028C311.747 134.094 311.931 133.043 312.031 131.875C312.164 130.708 312.264 129.49 312.331 128.222L312.731 117.413H335.751V144.336H327.944V121.917L329.696 123.819H317.886L319.537 121.817L319.187 128.573C319.087 130.975 318.887 133.177 318.586 135.178C318.319 137.18 317.869 138.915 317.235 140.383C316.601 141.817 315.751 142.935 314.683 143.735C313.615 144.503 312.248 144.886 310.58 144.886C309.979 144.886 309.345 144.836 308.678 144.736C308.011 144.636 307.293 144.486 306.526 144.286ZM342.757 144.336V117.413H350.514V127.322H358.421V134.077H350.514V144.336H342.757ZM368.229 144.736C365.46 144.736 362.991 144.136 360.823 142.935C358.654 141.734 356.953 140.099 355.718 138.031C354.484 135.929 353.867 133.544 353.867 130.875C353.867 128.172 354.484 125.787 355.718 123.719C356.953 121.617 358.654 119.982 360.823 118.814C362.991 117.613 365.46 117.013 368.229 117.013C370.998 117.013 373.45 117.613 375.585 118.814C377.754 119.982 379.455 121.617 380.689 123.719C381.924 125.787 382.541 128.172 382.541 130.875C382.541 133.544 381.924 135.929 380.689 138.031C379.455 140.132 377.754 141.784 375.585 142.985C373.45 144.152 370.998 144.736 368.229 144.736ZM368.229 138.331C369.497 138.331 370.614 138.031 371.582 137.43C372.583 136.83 373.367 135.979 373.934 134.878C374.534 133.744 374.834 132.409 374.834 130.875C374.834 129.307 374.534 127.972 373.934 126.871C373.367 125.77 372.583 124.92 371.582 124.319C370.614 123.719 369.497 123.418 368.229 123.418C366.995 123.418 365.86 123.719 364.826 124.319C363.825 124.92 363.025 125.77 362.424 126.871C361.857 127.972 361.573 129.307 361.573 130.875C361.573 132.409 361.857 133.744 362.424 134.878C363.025 135.979 363.825 136.83 364.826 137.43C365.86 138.031 366.995 138.331 368.229 138.331ZM400.272 144.736C397.37 144.736 394.784 144.152 392.515 142.985C390.247 141.784 388.462 140.132 387.161 138.031C385.893 135.929 385.259 133.544 385.259 130.875C385.259 128.172 385.893 125.787 387.161 123.719C388.462 121.617 390.247 119.982 392.515 118.814C394.784 117.613 397.37 117.013 400.272 117.013C403.108 117.013 405.576 117.613 407.678 118.814C409.78 119.982 411.331 121.667 412.332 123.869L406.277 127.121C405.576 125.854 404.692 124.92 403.625 124.319C402.591 123.719 401.456 123.418 400.222 123.418C398.887 123.418 397.686 123.719 396.619 124.319C395.551 124.92 394.701 125.77 394.067 126.871C393.466 127.972 393.166 129.307 393.166 130.875C393.166 132.443 393.466 133.777 394.067 134.878C394.701 135.979 395.551 136.83 396.619 137.43C397.686 138.031 398.887 138.331 400.222 138.331C401.456 138.331 402.591 138.047 403.625 137.48C404.692 136.88 405.576 135.929 406.277 134.628L412.332 137.931C411.331 140.099 409.78 141.784 407.678 142.985C405.576 144.152 403.108 144.736 400.272 144.736Z" fill="black"/>
<path d="M45.8603 172.495C45.111 172.495 44.443 172.366 43.8564 172.109C43.2736 171.852 42.81 171.494 42.4656 171.036C42.125 170.574 41.9396 170.039 41.9093 169.429H43.3398C43.3701 169.804 43.4988 170.128 43.7258 170.4C43.9529 170.669 44.25 170.877 44.6171 171.025C44.9842 171.172 45.391 171.246 45.8376 171.246C46.3371 171.246 46.7799 171.159 47.1659 170.985C47.552 170.811 47.8547 170.569 48.0742 170.258C48.2937 169.948 48.4035 169.588 48.4035 169.18C48.4035 168.752 48.2975 168.375 48.0856 168.05C47.8736 167.721 47.5633 167.463 47.1546 167.278C46.7459 167.093 46.2463 167 45.6559 167H44.7249V165.751H45.6559C46.1176 165.751 46.5226 165.668 46.8708 165.501C47.2227 165.335 47.4971 165.1 47.6939 164.797C47.8945 164.494 47.9947 164.139 47.9947 163.73C47.9947 163.336 47.9077 162.994 47.7336 162.703C47.5595 162.411 47.3135 162.184 46.9956 162.021C46.6815 161.859 46.3106 161.777 45.883 161.777C45.4818 161.777 45.1034 161.851 44.7476 161.999C44.3957 162.142 44.1081 162.352 43.8848 162.629C43.6615 162.901 43.5404 163.23 43.5215 163.616H42.1591C42.1818 163.007 42.3653 162.474 42.7097 162.016C43.0541 161.554 43.5044 161.194 44.0608 160.937C44.6209 160.68 45.2358 160.551 45.9057 160.551C46.6248 160.551 47.2416 160.697 47.7563 160.988C48.271 161.276 48.6665 161.656 48.9428 162.129C49.219 162.602 49.3572 163.113 49.3572 163.662C49.3572 164.317 49.185 164.875 48.8406 165.337C48.5 165.798 48.0364 166.118 47.4498 166.296V166.387C48.184 166.508 48.7573 166.82 49.1698 167.323C49.5823 167.823 49.7886 168.442 49.7886 169.18C49.7886 169.812 49.6164 170.379 49.272 170.883C48.9314 171.382 48.4659 171.776 47.8755 172.063C47.2852 172.351 46.6134 172.495 45.8603 172.495ZM54.699 172.54C54.1464 172.54 53.645 172.436 53.1946 172.228C52.7443 172.016 52.3867 171.711 52.1217 171.314C51.8568 170.913 51.7244 170.429 51.7244 169.861C51.7244 169.361 51.8228 168.956 52.0196 168.646C52.2163 168.332 52.4794 168.086 52.8086 167.908C53.1379 167.73 53.5012 167.598 53.8986 167.511C54.2997 167.42 54.7028 167.348 55.1077 167.295C55.6375 167.227 56.0671 167.176 56.3963 167.142C56.7294 167.104 56.9716 167.041 57.1229 166.954C57.2781 166.867 57.3557 166.716 57.3557 166.5V166.455C57.3557 165.895 57.2024 165.46 56.8959 165.149C56.5931 164.839 56.1333 164.684 55.5164 164.684C54.8768 164.684 54.3754 164.824 54.0121 165.104C53.6488 165.384 53.3933 165.683 53.2457 166.001L51.9741 165.547C52.2012 165.017 52.504 164.604 52.8824 164.309C53.2647 164.01 53.6809 163.802 54.1313 163.685C54.5854 163.563 55.032 163.503 55.471 163.503C55.7511 163.503 56.0727 163.537 56.4361 163.605C56.8032 163.669 57.157 163.804 57.4976 164.008C57.842 164.213 58.1277 164.521 58.3548 164.933C58.5819 165.346 58.6954 165.899 58.6954 166.591V172.336H57.3557V171.155H57.2876C57.1967 171.344 57.0454 171.547 56.8334 171.763C56.6215 171.978 56.3396 172.162 55.9876 172.313C55.6356 172.465 55.2061 172.54 54.699 172.54ZM54.9033 171.337C55.4332 171.337 55.8797 171.233 56.2431 171.025C56.6101 170.816 56.8864 170.548 57.0719 170.219C57.2611 169.889 57.3557 169.543 57.3557 169.18V167.953C57.2989 168.022 57.174 168.084 56.981 168.141C56.7918 168.194 56.5723 168.241 56.3225 168.283C56.0765 168.321 55.8362 168.355 55.6016 168.385C55.3707 168.411 55.1834 168.434 55.0396 168.453C54.6914 168.498 54.3659 168.572 54.0632 168.674C53.7642 168.773 53.522 168.922 53.3366 169.123C53.1549 169.32 53.0641 169.588 53.0641 169.929C53.0641 170.394 53.2363 170.746 53.5807 170.985C53.9288 171.22 54.3697 171.337 54.9033 171.337ZM61.1407 175.606V163.616H62.435V165.002H62.5939C62.6923 164.85 62.8285 164.657 63.0026 164.423C63.1805 164.184 63.4341 163.972 63.7633 163.787C64.0963 163.598 64.5467 163.503 65.1144 163.503C65.8486 163.503 66.4957 163.686 67.0558 164.054C67.6159 164.421 68.053 164.941 68.3672 165.615C68.6813 166.288 68.8383 167.083 68.8383 167.999C68.8383 168.922 68.6813 169.723 68.3672 170.4C68.053 171.074 67.6178 171.596 67.0615 171.967C66.5052 172.334 65.8637 172.518 65.1371 172.518C64.577 172.518 64.1285 172.425 63.7917 172.239C63.4549 172.05 63.1956 171.836 63.014 171.598C62.8323 171.356 62.6923 171.155 62.5939 170.996H62.4804V175.606H61.1407ZM62.4577 167.976C62.4577 168.635 62.5542 169.216 62.7472 169.719C62.9402 170.219 63.2221 170.61 63.593 170.894C63.9639 171.174 64.418 171.314 64.9554 171.314C65.5155 171.314 65.9829 171.167 66.3576 170.871C66.736 170.572 67.0199 170.171 67.2091 169.668C67.4021 169.161 67.4986 168.597 67.4986 167.976C67.4986 167.363 67.404 166.811 67.2148 166.319C67.0293 165.823 66.7474 165.431 66.3689 165.144C65.9943 164.852 65.5231 164.706 64.9554 164.706C64.4105 164.706 63.9525 164.845 63.5817 165.121C63.2108 165.393 62.9307 165.776 62.7415 166.268C62.5523 166.756 62.4577 167.325 62.4577 167.976ZM73.4478 172.54C72.8953 172.54 72.3939 172.436 71.9435 172.228C71.4931 172.016 71.1355 171.711 70.8706 171.314C70.6057 170.913 70.4732 170.429 70.4732 169.861C70.4732 169.361 70.5716 168.956 70.7684 168.646C70.9652 168.332 71.2282 168.086 71.5575 167.908C71.8867 167.73 72.25 167.598 72.6474 167.511C73.0486 167.42 73.4516 167.348 73.8566 167.295C74.3864 167.227 74.8159 167.176 75.1452 167.142C75.4782 167.104 75.7204 167.041 75.8718 166.954C76.027 166.867 76.1045 166.716 76.1045 166.5V166.455C76.1045 165.895 75.9513 165.46 75.6447 165.149C75.342 164.839 74.8822 164.684 74.2653 164.684C73.6257 164.684 73.1243 164.824 72.7609 165.104C72.3976 165.384 72.1422 165.683 71.9946 166.001L70.723 165.547C70.9501 165.017 71.2528 164.604 71.6313 164.309C72.0135 164.01 72.4298 163.802 72.8802 163.685C73.3343 163.563 73.7809 163.503 74.2199 163.503C74.4999 163.503 74.8216 163.537 75.1849 163.605C75.552 163.669 75.9059 163.804 76.2465 164.008C76.5909 164.213 76.8766 164.521 77.1037 164.933C77.3307 165.346 77.4443 165.899 77.4443 166.591V172.336H76.1045V171.155H76.0364C75.9456 171.344 75.7942 171.547 75.5823 171.763C75.3704 171.978 75.0884 172.162 74.7365 172.313C74.3845 172.465 73.955 172.54 73.4478 172.54ZM73.6522 171.337C74.182 171.337 74.6286 171.233 74.9919 171.025C75.359 170.816 75.6353 170.548 75.8207 170.219C76.0099 169.889 76.1045 169.543 76.1045 169.18V167.953C76.0478 168.022 75.9229 168.084 75.7299 168.141C75.5407 168.194 75.3212 168.241 75.0714 168.283C74.8254 168.321 74.5851 168.355 74.3504 168.385C74.1196 168.411 73.9323 168.434 73.7884 168.453C73.4403 168.498 73.1148 168.572 72.812 168.674C72.5131 168.773 72.2709 168.922 72.0854 169.123C71.9038 169.32 71.8129 169.588 71.8129 169.929C71.8129 170.394 71.9851 170.746 72.3295 170.985C72.6777 171.22 73.1186 171.337 73.6522 171.337ZM86.361 160.347L87.0422 161.164C86.7773 161.421 86.4708 161.601 86.1226 161.703C85.7744 161.806 85.3808 161.868 84.9418 161.891C84.5028 161.913 84.0146 161.936 83.4772 161.959C82.8717 161.982 82.3703 162.129 81.9729 162.402C81.5755 162.674 81.269 163.068 81.0532 163.582C80.8375 164.097 80.6994 164.729 80.6388 165.478H80.7524C81.0476 164.933 81.4563 164.532 81.9786 164.275C82.5008 164.018 83.0609 163.889 83.6589 163.889C84.3401 163.889 84.9532 164.048 85.4981 164.366C86.0431 164.684 86.4745 165.155 86.7924 165.779C87.1103 166.404 87.2693 167.174 87.2693 168.09C87.2693 169.002 87.1065 169.789 86.7811 170.451C86.4594 171.114 86.0072 171.624 85.4243 171.984C84.8453 172.34 84.166 172.518 83.3864 172.518C82.6068 172.518 81.9237 172.334 81.3371 171.967C80.7505 171.596 80.2945 171.047 79.969 170.321C79.6435 169.59 79.4808 168.688 79.4808 167.613V166.682C79.4808 164.74 79.81 163.268 80.4685 162.265C81.1308 161.263 82.1262 160.744 83.4545 160.71C83.9238 160.695 84.342 160.691 84.7091 160.699C85.0762 160.706 85.396 160.689 85.6684 160.648C85.9409 160.606 86.1718 160.506 86.361 160.347ZM83.3864 171.314C83.9124 171.314 84.3647 171.182 84.7431 170.917C85.1254 170.652 85.4187 170.279 85.623 169.798C85.8274 169.314 85.9296 168.744 85.9296 168.09C85.9296 167.454 85.8255 166.913 85.6174 166.466C85.413 166.02 85.1197 165.679 84.7375 165.444C84.3552 165.21 83.8973 165.092 83.3637 165.092C82.9739 165.092 82.6238 165.159 82.3135 165.291C82.0032 165.424 81.7382 165.618 81.5187 165.876C81.2992 166.133 81.1289 166.447 81.0078 166.818C80.8905 167.189 80.8281 167.613 80.8205 168.09C80.8205 169.066 81.0495 169.848 81.5074 170.434C81.9653 171.021 82.5916 171.314 83.3864 171.314ZM91.8845 172.54C91.3319 172.54 90.8305 172.436 90.3801 172.228C89.9298 172.016 89.5721 171.711 89.3072 171.314C89.0423 170.913 88.9099 170.429 88.9099 169.861C88.9099 169.361 89.0083 168.956 89.205 168.646C89.4018 168.332 89.6649 168.086 89.9941 167.908C90.3234 167.73 90.6867 167.598 91.0841 167.511C91.4852 167.42 91.8883 167.348 92.2932 167.295C92.823 167.227 93.2526 167.176 93.5818 167.142C93.9149 167.104 94.1571 167.041 94.3084 166.954C94.4636 166.867 94.5412 166.716 94.5412 166.5V166.455C94.5412 165.895 94.3879 165.46 94.0814 165.149C93.7786 164.839 93.3188 164.684 92.7019 164.684C92.0623 164.684 91.5609 164.824 91.1976 165.104C90.8343 165.384 90.5788 165.683 90.4312 166.001L89.1596 165.547C89.3867 165.017 89.6895 164.604 90.0679 164.309C90.4501 164.01 90.8664 163.802 91.3168 163.685C91.7709 163.563 92.2175 163.503 92.6565 163.503C92.9366 163.503 93.2582 163.537 93.6216 163.605C93.9886 163.669 94.3425 163.804 94.6831 164.008C95.0275 164.213 95.3132 164.521 95.5403 164.933C95.7674 165.346 95.8809 165.899 95.8809 166.591V172.336H94.5412V171.155H94.4731C94.3822 171.344 94.2309 171.547 94.0189 171.763C93.807 171.978 93.525 172.162 93.1731 172.313C92.8211 172.465 92.3916 172.54 91.8845 172.54ZM92.0888 171.337C92.6187 171.337 93.0652 171.233 93.4285 171.025C93.7956 170.816 94.0719 170.548 94.2573 170.219C94.4466 169.889 94.5412 169.543 94.5412 169.18V167.953C94.4844 168.022 94.3595 168.084 94.1665 168.141C93.9773 168.194 93.7578 168.241 93.508 168.283C93.262 168.321 93.0217 168.355 92.7871 168.385C92.5562 168.411 92.3689 168.434 92.2251 168.453C91.8769 168.498 91.5514 168.572 91.2487 168.674C90.9497 168.773 90.7075 168.922 90.5221 169.123C90.3404 169.32 90.2496 169.588 90.2496 169.929C90.2496 170.394 90.4218 170.746 90.7662 170.985C91.1143 171.22 91.5552 171.337 92.0888 171.337ZM97.1397 164.865V163.616H104.224V164.865H101.363V172.336H100.024V164.865H97.1397ZM107.337 166.773H109.834C110.856 166.773 111.638 167.032 112.179 167.55C112.72 168.069 112.991 168.726 112.991 169.52C112.991 170.043 112.869 170.517 112.627 170.945C112.385 171.369 112.029 171.708 111.56 171.961C111.091 172.211 110.516 172.336 109.834 172.336H106.179V163.616H107.518V171.087H109.834C110.364 171.087 110.799 170.947 111.14 170.667C111.481 170.387 111.651 170.027 111.651 169.588C111.651 169.127 111.481 168.75 111.14 168.459C110.799 168.167 110.364 168.022 109.834 168.022H107.337V166.773ZM114.376 172.336V163.616H115.715V172.336H114.376ZM118.168 172.336V163.616H121.733C122.671 163.616 123.417 163.828 123.969 164.252C124.522 164.676 124.798 165.236 124.798 165.933C124.798 166.462 124.641 166.873 124.327 167.164C124.013 167.452 123.61 167.647 123.118 167.749C123.44 167.795 123.752 167.908 124.055 168.09C124.361 168.271 124.615 168.521 124.815 168.839C125.016 169.153 125.116 169.539 125.116 169.997C125.116 170.444 125.003 170.843 124.776 171.195C124.548 171.547 124.223 171.825 123.799 172.029C123.375 172.234 122.868 172.336 122.278 172.336H118.168ZM119.439 171.11H122.278C122.739 171.11 123.101 171 123.362 170.781C123.623 170.561 123.754 170.262 123.754 169.884C123.754 169.433 123.623 169.079 123.362 168.822C123.101 168.561 122.739 168.43 122.278 168.43H119.439V171.11ZM119.439 167.272H121.733C122.092 167.272 122.401 167.223 122.658 167.125C122.915 167.023 123.112 166.879 123.248 166.693C123.388 166.504 123.459 166.281 123.459 166.023C123.459 165.656 123.305 165.369 122.999 165.161C122.692 164.949 122.27 164.843 121.733 164.843H119.439V167.272ZM129.71 172.54C129.157 172.54 128.656 172.436 128.206 172.228C127.755 172.016 127.398 171.711 127.133 171.314C126.868 170.913 126.735 170.429 126.735 169.861C126.735 169.361 126.834 168.956 127.031 168.646C127.227 168.332 127.49 168.086 127.82 167.908C128.149 167.73 128.512 167.598 128.91 167.511C129.311 167.42 129.714 167.348 130.119 167.295C130.649 167.227 131.078 167.176 131.407 167.142C131.74 167.104 131.983 167.041 132.134 166.954C132.289 166.867 132.367 166.716 132.367 166.5V166.455C132.367 165.895 132.213 165.46 131.907 165.149C131.604 164.839 131.144 164.684 130.527 164.684C129.888 164.684 129.386 164.824 129.023 165.104C128.66 165.384 128.404 165.683 128.257 166.001L126.985 165.547C127.212 165.017 127.515 164.604 127.893 164.309C128.276 164.01 128.692 163.802 129.142 163.685C129.596 163.563 130.043 163.503 130.482 163.503C130.762 163.503 131.084 163.537 131.447 163.605C131.814 163.669 132.168 163.804 132.509 164.008C132.853 164.213 133.139 164.521 133.366 164.933C133.593 165.346 133.706 165.899 133.706 166.591V172.336H132.367V171.155H132.299C132.208 171.344 132.056 171.547 131.844 171.763C131.633 171.978 131.351 172.162 130.999 172.313C130.647 172.465 130.217 172.54 129.71 172.54ZM129.914 171.337C130.444 171.337 130.891 171.233 131.254 171.025C131.621 170.816 131.897 170.548 132.083 170.219C132.272 169.889 132.367 169.543 132.367 169.18V167.953C132.31 168.022 132.185 168.084 131.992 168.141C131.803 168.194 131.583 168.241 131.334 168.283C131.088 168.321 130.847 168.355 130.613 168.385C130.382 168.411 130.194 168.434 130.051 168.453C129.702 168.498 129.377 168.572 129.074 168.674C128.775 168.773 128.533 168.922 128.348 169.123C128.166 169.32 128.075 169.588 128.075 169.929C128.075 170.394 128.247 170.746 128.592 170.985C128.94 171.22 129.381 171.337 129.914 171.337ZM137.491 170.36L141.692 163.616H143.236V172.336H141.897V165.592L137.718 172.336H136.152V163.616H137.491V170.36ZM140.807 160.71H142.056C142.056 161.323 141.844 161.825 141.42 162.214C140.996 162.604 140.421 162.799 139.694 162.799C138.979 162.799 138.409 162.604 137.985 162.214C137.565 161.825 137.355 161.323 137.355 160.71H138.604C138.604 161.005 138.685 161.264 138.848 161.488C139.015 161.711 139.297 161.823 139.694 161.823C140.091 161.823 140.375 161.711 140.546 161.488C140.72 161.264 140.807 161.005 140.807 160.71ZM151.049 175.606C150.822 175.606 150.619 175.587 150.441 175.549C150.264 175.515 150.141 175.481 150.072 175.447L150.413 174.266C150.739 174.349 151.026 174.38 151.276 174.357C151.526 174.334 151.747 174.223 151.94 174.022C152.137 173.825 152.317 173.505 152.479 173.063L152.729 172.381L149.505 163.616H150.958L153.365 170.565H153.456L155.863 163.616H157.316L153.615 173.608C153.448 174.058 153.242 174.431 152.996 174.726C152.75 175.025 152.464 175.246 152.139 175.39C151.817 175.534 151.454 175.606 151.049 175.606ZM163.853 170.519L166.896 163.616H168.167L164.398 172.336H163.308L159.607 163.616H160.855L163.853 170.519ZM160.424 163.616V172.336H159.084V163.616H160.424ZM167.282 172.336V163.616H168.621V172.336H167.282ZM174.616 172.518C173.829 172.518 173.138 172.33 172.544 171.956C171.953 171.581 171.492 171.057 171.159 170.383C170.83 169.709 170.665 168.922 170.665 168.022C170.665 167.113 170.83 166.32 171.159 165.643C171.492 164.966 171.953 164.44 172.544 164.065C173.138 163.69 173.829 163.503 174.616 163.503C175.403 163.503 176.092 163.69 176.682 164.065C177.276 164.44 177.738 164.966 178.067 165.643C178.4 166.32 178.567 167.113 178.567 168.022C178.567 168.922 178.4 169.709 178.067 170.383C177.738 171.057 177.276 171.581 176.682 171.956C176.092 172.33 175.403 172.518 174.616 172.518ZM174.616 171.314C175.214 171.314 175.706 171.161 176.092 170.854C176.478 170.548 176.764 170.145 176.949 169.645C177.134 169.146 177.227 168.604 177.227 168.022C177.227 167.439 177.134 166.896 176.949 166.392C176.764 165.889 176.478 165.482 176.092 165.172C175.706 164.862 175.214 164.706 174.616 164.706C174.018 164.706 173.526 164.862 173.14 165.172C172.754 165.482 172.468 165.889 172.283 166.392C172.097 166.896 172.005 167.439 172.005 168.022C172.005 168.604 172.097 169.146 172.283 169.645C172.468 170.145 172.754 170.548 173.14 170.854C173.526 171.161 174.018 171.314 174.616 171.314ZM185.38 170.519L188.423 163.616H189.695L185.925 172.336H184.835L181.134 163.616H182.383L185.38 170.519ZM181.952 163.616V172.336H180.612V163.616H181.952ZM188.809 172.336V163.616H190.149V172.336H188.809ZM202.933 167.363V168.612H198.119V167.363H202.933ZM198.437 163.616V172.336H197.097V163.616H198.437ZM203.955 163.616V172.336H202.615V163.616H203.955ZM208.967 172.54C208.415 172.54 207.913 172.436 207.463 172.228C207.013 172.016 206.655 171.711 206.39 171.314C206.125 170.913 205.993 170.429 205.993 169.861C205.993 169.361 206.091 168.956 206.288 168.646C206.485 168.332 206.748 168.086 207.077 167.908C207.406 167.73 207.769 167.598 208.167 167.511C208.568 167.42 208.971 167.348 209.376 167.295C209.906 167.227 210.335 167.176 210.665 167.142C210.998 167.104 211.24 167.041 211.391 166.954C211.546 166.867 211.624 166.716 211.624 166.5V166.455C211.624 165.895 211.471 165.46 211.164 165.149C210.861 164.839 210.402 164.684 209.785 164.684C209.145 164.684 208.644 164.824 208.28 165.104C207.917 165.384 207.662 165.683 207.514 166.001L206.242 165.547C206.469 165.017 206.772 164.604 207.151 164.309C207.533 164.01 207.949 163.802 208.4 163.685C208.854 163.563 209.3 163.503 209.739 163.503C210.019 163.503 210.341 163.537 210.704 163.605C211.071 163.669 211.425 163.804 211.766 164.008C212.11 164.213 212.396 164.521 212.623 164.933C212.85 165.346 212.964 165.899 212.964 166.591V172.336H211.624V171.155H211.556C211.465 171.344 211.314 171.547 211.102 171.763C210.89 171.978 210.608 172.162 210.256 172.313C209.904 172.465 209.474 172.54 208.967 172.54ZM209.172 171.337C209.701 171.337 210.148 171.233 210.511 171.025C210.878 170.816 211.155 170.548 211.34 170.219C211.529 169.889 211.624 169.543 211.624 169.18V167.953C211.567 168.022 211.442 168.084 211.249 168.141C211.06 168.194 210.841 168.241 210.591 168.283C210.345 168.321 210.105 168.355 209.87 168.385C209.639 168.411 209.452 168.434 209.308 168.453C208.96 168.498 208.634 168.572 208.331 168.674C208.032 168.773 207.79 168.922 207.605 169.123C207.423 169.32 207.332 169.588 207.332 169.929C207.332 170.394 207.505 170.746 207.849 170.985C208.197 171.22 208.638 171.337 209.172 171.337ZM219.905 172.336V163.616H226.762V172.336H225.423V164.865H221.245V172.336H219.905ZM229.209 175.606V163.616H230.503V165.002H230.662C230.761 164.85 230.897 164.657 231.071 164.423C231.249 164.184 231.503 163.972 231.832 163.787C232.165 163.598 232.615 163.503 233.183 163.503C233.917 163.503 234.564 163.686 235.124 164.054C235.684 164.421 236.121 164.941 236.436 165.615C236.75 166.288 236.907 167.083 236.907 167.999C236.907 168.922 236.75 169.723 236.436 170.4C236.121 171.074 235.686 171.596 235.13 171.967C234.574 172.334 233.932 172.518 233.206 172.518C232.645 172.518 232.197 172.425 231.86 172.239C231.523 172.05 231.264 171.836 231.082 171.598C230.901 171.356 230.761 171.155 230.662 170.996H230.549V175.606H229.209ZM230.526 167.976C230.526 168.635 230.623 169.216 230.816 169.719C231.009 170.219 231.291 170.61 231.661 170.894C232.032 171.174 232.486 171.314 233.024 171.314C233.584 171.314 234.051 171.167 234.426 170.871C234.804 170.572 235.088 170.171 235.278 169.668C235.471 169.161 235.567 168.597 235.567 167.976C235.567 167.363 235.472 166.811 235.283 166.319C235.098 165.823 234.816 165.431 234.437 165.144C234.063 164.852 233.592 164.706 233.024 164.706C232.479 164.706 232.021 164.845 231.65 165.121C231.279 165.393 230.999 165.776 230.81 166.268C230.621 166.756 230.526 167.325 230.526 167.976ZM242.493 172.518C241.706 172.518 241.015 172.33 240.421 171.956C239.83 171.581 239.369 171.057 239.036 170.383C238.706 169.709 238.542 168.922 238.542 168.022C238.542 167.113 238.706 166.32 239.036 165.643C239.369 164.966 239.83 164.44 240.421 164.065C241.015 163.69 241.706 163.503 242.493 163.503C243.28 163.503 243.969 163.69 244.559 164.065C245.153 164.44 245.615 164.966 245.944 165.643C246.277 166.32 246.444 167.113 246.444 168.022C246.444 168.922 246.277 169.709 245.944 170.383C245.615 171.057 245.153 171.581 244.559 171.956C243.969 172.33 243.28 172.518 242.493 172.518ZM242.493 171.314C243.091 171.314 243.583 171.161 243.969 170.854C244.355 170.548 244.64 170.145 244.826 169.645C245.011 169.146 245.104 168.604 245.104 168.022C245.104 167.439 245.011 166.896 244.826 166.392C244.64 165.889 244.355 165.482 243.969 165.172C243.583 164.862 243.091 164.706 242.493 164.706C241.895 164.706 241.403 164.862 241.017 165.172C240.631 165.482 240.345 165.889 240.16 166.392C239.974 166.896 239.881 167.439 239.881 168.022C239.881 168.604 239.974 169.146 240.16 169.645C240.345 170.145 240.631 170.548 241.017 170.854C241.403 171.161 241.895 171.314 242.493 171.314ZM247.558 174.834V171.087H248.284C248.462 170.902 248.616 170.701 248.744 170.485C248.873 170.27 248.985 170.014 249.079 169.719C249.178 169.42 249.261 169.057 249.329 168.629C249.397 168.198 249.458 167.677 249.511 167.068L249.806 163.616H255.346V171.087H256.686V174.834H255.346V172.336H248.897V174.834H247.558ZM249.806 171.087H254.007V164.865H251.055L250.828 167.068C250.733 167.98 250.616 168.777 250.476 169.458C250.336 170.139 250.112 170.682 249.806 171.087ZM261.03 172.54C260.478 172.54 259.976 172.436 259.526 172.228C259.075 172.016 258.718 171.711 258.453 171.314C258.188 170.913 258.055 170.429 258.055 169.861C258.055 169.361 258.154 168.956 258.351 168.646C258.547 168.332 258.81 168.086 259.14 167.908C259.469 167.73 259.832 167.598 260.23 167.511C260.631 167.42 261.034 167.348 261.439 167.295C261.969 167.227 262.398 167.176 262.727 167.142C263.06 167.104 263.303 167.041 263.454 166.954C263.609 166.867 263.687 166.716 263.687 166.5V166.455C263.687 165.895 263.534 165.46 263.227 165.149C262.924 164.839 262.464 164.684 261.848 164.684C261.208 164.684 260.707 164.824 260.343 165.104C259.98 165.384 259.724 165.683 259.577 166.001L258.305 165.547C258.532 165.017 258.835 164.604 259.214 164.309C259.596 164.01 260.012 163.802 260.462 163.685C260.917 163.563 261.363 163.503 261.802 163.503C262.082 163.503 262.404 163.537 262.767 163.605C263.134 163.669 263.488 163.804 263.829 164.008C264.173 164.213 264.459 164.521 264.686 164.933C264.913 165.346 265.027 165.899 265.027 166.591V172.336H263.687V171.155H263.619C263.528 171.344 263.376 171.547 263.165 171.763C262.953 171.978 262.671 172.162 262.319 172.313C261.967 172.465 261.537 172.54 261.03 172.54ZM261.234 171.337C261.764 171.337 262.211 171.233 262.574 171.025C262.941 170.816 263.218 170.548 263.403 170.219C263.592 169.889 263.687 169.543 263.687 169.18V167.953C263.63 168.022 263.505 168.084 263.312 168.141C263.123 168.194 262.903 168.241 262.654 168.283C262.408 168.321 262.167 168.355 261.933 168.385C261.702 168.411 261.515 168.434 261.371 168.453C261.023 168.498 260.697 168.572 260.394 168.674C260.095 168.773 259.853 168.922 259.668 169.123C259.486 169.32 259.395 169.588 259.395 169.929C259.395 170.394 259.567 170.746 259.912 170.985C260.26 171.22 260.701 171.337 261.234 171.337ZM266.927 172.336L270.469 167.908L266.972 163.616H268.562L271.468 167.34H272.195V163.616H273.535V167.34H274.238L277.145 163.616H278.734L275.26 167.908L278.78 172.336H277.168L274.216 168.589H273.535V172.336H272.195V168.589H271.514L268.539 172.336H266.927ZM283.26 172.54C282.708 172.54 282.206 172.436 281.756 172.228C281.306 172.016 280.948 171.711 280.683 171.314C280.418 170.913 280.286 170.429 280.286 169.861C280.286 169.361 280.384 168.956 280.581 168.646C280.778 168.332 281.041 168.086 281.37 167.908C281.699 167.73 282.062 167.598 282.46 167.511C282.861 167.42 283.264 167.348 283.669 167.295C284.199 167.227 284.628 167.176 284.958 167.142C285.291 167.104 285.533 167.041 285.684 166.954C285.839 166.867 285.917 166.716 285.917 166.5V166.455C285.917 165.895 285.764 165.46 285.457 165.149C285.154 164.839 284.695 164.684 284.078 164.684C283.438 164.684 282.937 164.824 282.573 165.104C282.21 165.384 281.955 165.683 281.807 166.001L280.535 165.547C280.762 165.017 281.065 164.604 281.444 164.309C281.826 164.01 282.242 163.802 282.693 163.685C283.147 163.563 283.593 163.503 284.032 163.503C284.312 163.503 284.634 163.537 284.997 163.605C285.364 163.669 285.718 163.804 286.059 164.008C286.403 164.213 286.689 164.521 286.916 164.933C287.143 165.346 287.257 165.899 287.257 166.591V172.336H285.917V171.155H285.849C285.758 171.344 285.607 171.547 285.395 171.763C285.183 171.978 284.901 172.162 284.549 172.313C284.197 172.465 283.767 172.54 283.26 172.54ZM283.465 171.337C283.994 171.337 284.441 171.233 284.804 171.025C285.171 170.816 285.448 170.548 285.633 170.219C285.822 169.889 285.917 169.543 285.917 169.18V167.953C285.86 168.022 285.735 168.084 285.542 168.141C285.353 168.194 285.134 168.241 284.884 168.283C284.638 168.321 284.397 168.355 284.163 168.385C283.932 168.411 283.745 168.434 283.601 168.453C283.253 168.498 282.927 168.572 282.624 168.674C282.325 168.773 282.083 168.922 281.898 169.123C281.716 169.32 281.625 169.588 281.625 169.929C281.625 170.394 281.797 170.746 282.142 170.985C282.49 171.22 282.931 171.337 283.465 171.337ZM290.701 163.616L292.79 167.181L294.879 163.616H296.423L293.607 167.976L296.423 172.336H294.879L292.79 168.953L290.701 172.336H289.157L291.927 167.976L289.157 163.616H290.701ZM301.9 174.834V171.087H302.626C302.804 170.902 302.958 170.701 303.086 170.485C303.215 170.27 303.327 170.014 303.421 169.719C303.52 169.42 303.603 169.057 303.671 168.629C303.739 168.198 303.8 167.677 303.853 167.068L304.148 163.616H309.688V171.087H311.028V174.834H309.688V172.336H303.239V174.834H301.9ZM304.148 171.087H308.349V164.865H305.397L305.17 167.068C305.075 167.98 304.958 168.777 304.818 169.458C304.678 170.139 304.454 170.682 304.148 171.087ZM316.349 172.518C315.561 172.518 314.871 172.33 314.276 171.956C313.686 171.581 313.224 171.057 312.891 170.383C312.562 169.709 312.397 168.922 312.397 168.022C312.397 167.113 312.562 166.32 312.891 165.643C313.224 164.966 313.686 164.44 314.276 164.065C314.871 163.69 315.561 163.503 316.349 163.503C317.136 163.503 317.824 163.69 318.415 164.065C319.009 164.44 319.471 164.966 319.8 165.643C320.133 166.32 320.3 167.113 320.3 168.022C320.3 168.922 320.133 169.709 319.8 170.383C319.471 171.057 319.009 171.581 318.415 171.956C317.824 172.33 317.136 172.518 316.349 172.518ZM316.349 171.314C316.946 171.314 317.438 171.161 317.824 170.854C318.21 170.548 318.496 170.145 318.682 169.645C318.867 169.146 318.96 168.604 318.96 168.022C318.96 167.439 318.867 166.896 318.682 166.392C318.496 165.889 318.21 165.482 317.824 165.172C317.438 164.862 316.946 164.706 316.349 164.706C315.751 164.706 315.259 164.862 314.873 165.172C314.487 165.482 314.201 165.889 314.015 166.392C313.83 166.896 313.737 167.439 313.737 168.022C313.737 168.604 313.83 169.146 314.015 169.645C314.201 170.145 314.487 170.548 314.873 170.854C315.259 171.161 315.751 171.314 316.349 171.314ZM327.113 170.519L330.156 163.616H331.427L327.658 172.336H326.568L322.867 163.616H324.116L327.113 170.519ZM323.684 163.616V172.336H322.345V163.616H323.684ZM330.542 172.336V163.616H331.882V172.336H330.542ZM336.9 172.54C336.347 172.54 335.846 172.436 335.395 172.228C334.945 172.016 334.587 171.711 334.322 171.314C334.058 170.913 333.925 170.429 333.925 169.861C333.925 169.361 334.024 168.956 334.22 168.646C334.417 168.332 334.68 168.086 335.009 167.908C335.339 167.73 335.702 167.598 336.099 167.511C336.5 167.42 336.904 167.348 337.308 167.295C337.838 167.227 338.268 167.176 338.597 167.142C338.93 167.104 339.172 167.041 339.324 166.954C339.479 166.867 339.556 166.716 339.556 166.5V166.455C339.556 165.895 339.403 165.46 339.097 165.149C338.794 164.839 338.334 164.684 337.717 164.684C337.078 164.684 336.576 164.824 336.213 165.104C335.85 165.384 335.594 165.683 335.446 166.001L334.175 165.547C334.402 165.017 334.705 164.604 335.083 164.309C335.465 164.01 335.882 163.802 336.332 163.685C336.786 163.563 337.233 163.503 337.672 163.503C337.952 163.503 338.274 163.537 338.637 163.605C339.004 163.669 339.358 163.804 339.698 164.008C340.043 164.213 340.328 164.521 340.556 164.933C340.783 165.346 340.896 165.899 340.896 166.591V172.336H339.556V171.155H339.488C339.397 171.344 339.246 171.547 339.034 171.763C338.822 171.978 338.54 172.162 338.188 172.313C337.836 172.465 337.407 172.54 336.9 172.54ZM337.104 171.337C337.634 171.337 338.08 171.233 338.444 171.025C338.811 170.816 339.087 170.548 339.273 170.219C339.462 169.889 339.556 169.543 339.556 169.18V167.953C339.5 168.022 339.375 168.084 339.182 168.141C338.993 168.194 338.773 168.241 338.523 168.283C338.277 168.321 338.037 168.355 337.802 168.385C337.571 168.411 337.384 168.434 337.24 168.453C336.892 168.498 336.567 168.572 336.264 168.674C335.965 168.773 335.723 168.922 335.537 169.123C335.356 169.32 335.265 169.588 335.265 169.929C335.265 170.394 335.437 170.746 335.781 170.985C336.13 171.22 336.57 171.337 337.104 171.337ZM343.341 163.616H344.681V171.087H347.974V163.616H349.313V171.087H352.606V163.616H353.946V172.336H343.341V163.616ZM360.048 172.518C359.208 172.518 358.483 172.332 357.874 171.961C357.268 171.587 356.801 171.064 356.472 170.394C356.146 169.721 355.984 168.937 355.984 168.044C355.984 167.151 356.146 166.364 356.472 165.683C356.801 164.998 357.259 164.464 357.845 164.082C358.436 163.696 359.125 163.503 359.912 163.503C360.366 163.503 360.814 163.579 361.257 163.73C361.7 163.881 362.103 164.127 362.466 164.468C362.83 164.805 363.119 165.251 363.335 165.808C363.551 166.364 363.658 167.049 363.658 167.863V168.43H356.937V167.272H362.296C362.296 166.78 362.198 166.341 362.001 165.955C361.808 165.569 361.532 165.265 361.172 165.041C360.816 164.818 360.396 164.706 359.912 164.706C359.378 164.706 358.917 164.839 358.527 165.104C358.141 165.365 357.844 165.706 357.635 166.126C357.427 166.546 357.323 166.996 357.323 167.477V168.249C357.323 168.907 357.437 169.465 357.664 169.923C357.895 170.377 358.214 170.724 358.623 170.962C359.032 171.197 359.507 171.314 360.048 171.314C360.4 171.314 360.718 171.265 361.002 171.167C361.289 171.064 361.537 170.913 361.745 170.712C361.954 170.508 362.114 170.254 362.228 169.952L363.522 170.315C363.386 170.754 363.157 171.14 362.835 171.473C362.514 171.802 362.116 172.06 361.643 172.245C361.17 172.427 360.638 172.518 360.048 172.518ZM365.696 172.336V163.616H367.036V167.409H367.922L371.055 163.616H372.781L369.261 167.817L372.826 172.336H371.101L368.24 168.657H367.036V172.336H365.696Z" fill="black"/>
<defs>
<clipPath id="clip0_3732_32525">
<rect width="106.34" height="87.5739" fill="white" transform="translate(154.059 0.761719)"/>
</clipPath>
</defs>
</svg>
