<svg width="299" height="49" viewBox="0 0 299 49" fill="none" xmlns="http://www.w3.org/2000/svg">
<g clip-path="url(#clip0_3729_34787)">
<path d="M45.2947 47.6068C52.004 47.6068 57.443 42.1578 57.443 35.4362C57.443 28.7146 52.004 23.2656 45.2947 23.2656C38.5854 23.2656 33.1465 28.7146 33.1465 35.4362C33.1465 42.1578 38.5854 47.6068 45.2947 47.6068Z" fill="#F8C028"/>
<path d="M30.9337 41.4544C30.0552 42.0278 28.0691 43.1545 26.2261 43.1545C25.5651 43.1545 24.9269 43.0083 24.3602 42.6385C23.5275 42.0937 21.9478 41.5031 20.4568 41.5031H2.75384C2.30455 41.5031 1.86669 41.3225 1.5519 41.0014C1.23138 40.6803 1.05967 40.2445 1.06254 39.7943L1.26572 14.6103L1.28003 12.976C1.29148 12.0471 2.04699 11.2988 2.97134 11.2988H2.99137C3.54656 11.3074 4.04164 11.5798 4.34213 12.0013C4.54818 12.2822 4.66551 12.6291 4.66265 13.0047L4.45946 38.1143H20.4568C22.7605 38.1143 24.944 38.9944 26.146 39.7628C26.7727 39.8574 28.7073 38.9514 29.2997 38.4784C29.5 38.3207 29.7232 38.2146 29.9579 38.163C29.9922 38.4038 30.0323 38.6447 30.0867 38.8826C30.2097 39.4876 30.3843 40.0782 30.5961 40.6516C30.6962 40.9211 30.8107 41.1906 30.9309 41.4544H30.9337Z" fill="#F8C028"/>
<path d="M45.294 21.244C50.9889 21.244 55.6221 16.6023 55.6221 10.8969C55.6221 5.19148 50.9889 0.546875 45.294 0.546875C39.599 0.546875 34.9658 5.18861 34.9658 10.894C34.9658 16.5994 39.599 21.2412 45.294 21.2412V21.244ZM45.294 2.42765C49.9529 2.42765 53.7448 6.22648 53.7448 10.894C53.7448 15.5616 49.9529 19.3604 45.294 19.3604C40.635 19.3604 36.8431 15.5616 36.8431 10.894C36.8431 6.22648 40.635 2.42765 45.294 2.42765Z" fill="black"/>
<path d="M45.2939 22.3242C38.0794 22.3242 32.207 28.2045 32.207 35.4352C32.207 42.6659 38.0765 48.5462 45.2939 48.5462C52.5113 48.5462 58.3808 42.6659 58.3808 35.4352C58.3808 28.2045 52.5113 22.3242 45.2939 22.3242ZM45.2939 46.6625C39.1125 46.6625 34.0844 41.6251 34.0844 35.4323C34.0844 29.2395 39.1125 24.2021 45.2939 24.2021C51.4754 24.2021 56.5035 29.2395 56.5035 35.4323C56.5035 41.6251 51.4754 46.6625 45.2939 46.6625Z" fill="black"/>
<path d="M30.5994 40.6512C30.5736 40.6627 30.5507 40.677 30.5278 40.6971C29.8095 41.2533 27.9551 42.3113 26.7789 42.3113C26.155 42.3113 25.411 41.9529 24.624 41.5744C23.6767 41.1157 22.6036 40.5996 21.4474 40.5996H2.91169C2.39371 40.5996 1.97303 40.1782 1.97303 39.6592V13.4832C1.97303 13.0703 1.70688 12.7148 1.33199 12.5915C1.2118 12.5514 1.07729 12.5313 0.937065 12.5456C0.447701 12.5944 0.0957031 13.0416 0.0957031 13.5348V41.54C0.0957031 42.059 0.516384 42.4804 1.03437 42.4804H21.4445C22.1743 42.4804 22.967 42.8617 23.8084 43.266C24.7499 43.7218 25.7286 44.192 26.7789 44.192C28.4731 44.192 30.4906 43.0223 31.4064 42.3829C31.2375 42.0819 31.0801 41.7694 30.9342 41.454C30.814 41.1902 30.7024 40.9236 30.5994 40.6512Z" fill="black"/>
<path d="M5.08676 38.4585H19.7276C22.2488 38.4585 23.5166 39.1122 24.5382 39.6369C25.268 40.0124 25.9548 40.368 26.8334 40.368C28.3129 40.368 29.1056 39.7028 29.741 39.1667C29.8583 39.0663 29.9699 38.9717 30.0872 38.8857C30.0357 38.6477 29.9928 38.4069 29.9584 38.1661C29.9012 37.7848 29.8611 37.3977 29.8411 37.0021C29.6236 36.9992 29.3975 37.0623 29.2087 37.1941C28.954 37.3719 28.7307 37.5583 28.5333 37.7245C27.9895 38.1804 27.629 38.4843 26.8305 38.4843C26.4013 38.4843 25.9806 38.2664 25.3968 37.9654C24.2578 37.3776 22.701 36.5777 19.7247 36.5777H6.9555C6.43752 36.5777 6.01684 36.1563 6.01684 35.6373V12.5204C6.01684 12.0015 6.43752 11.58 6.9555 11.58H19.7305C21.9855 11.58 24.5411 13.3948 25.8947 14.7595C25.8947 14.7595 25.8957 14.7624 25.8976 14.7681V34.6597C25.8976 35.2532 26.4471 35.7176 27.0623 35.5743C27.4945 35.4739 27.7749 35.0525 27.7749 34.6081L27.7864 14.7911V14.7825C29.4977 12.9361 31.1489 11.9728 32.7029 11.6775C33.2123 11.58 33.5471 11.0869 33.4498 10.5794C33.3554 10.0691 32.8631 9.73362 32.3538 9.82824C30.5651 10.1694 28.7336 11.2704 26.9049 13.1053C26.9021 13.1081 26.8935 13.1081 26.8906 13.1053C25.3081 11.6144 22.5379 9.69922 19.7305 9.69922H5.08676C4.82062 9.69922 4.58023 9.80817 4.40566 9.98592C4.23681 10.1579 4.13379 10.393 4.13379 10.6511V37.5067C4.13379 37.7618 4.23109 37.9912 4.39993 38.1661C4.56878 38.3467 4.81203 38.4585 5.0839 38.4585H5.08676Z" fill="black"/>
<path d="M21.3586 16.0957H9.21894C8.70095 16.0957 8.28027 16.5172 8.28027 17.0361C8.28027 17.555 8.70095 17.9765 9.21894 17.9765H21.3614C21.8794 17.9765 22.3001 17.555 22.3001 17.0361C22.3001 16.5172 21.8794 16.0957 21.3614 16.0957H21.3586Z" fill="black"/>
<path d="M21.3586 20.4844H9.21894C8.70095 20.4844 8.28027 20.9058 8.28027 21.4248C8.28027 21.9437 8.70095 22.3652 9.21894 22.3652H21.3614C21.8794 22.3652 22.3001 21.9437 22.3001 21.4248C22.3001 20.9058 21.8794 20.4844 21.3614 20.4844H21.3586Z" fill="black"/>
<path d="M21.3586 24.873H9.21894C8.70095 24.873 8.28027 25.2945 8.28027 25.8134C8.28027 26.3324 8.70095 26.7538 9.21894 26.7538H21.3614C21.8794 26.7538 22.3001 26.3324 22.3001 25.8134C22.3001 25.2945 21.8794 24.873 21.3614 24.873H21.3586Z" fill="black"/>
<path d="M21.3586 29.2637H9.21894C8.70095 29.2637 8.28027 29.6851 8.28027 30.2041C8.28027 30.723 8.70095 31.1445 9.21894 31.1445H21.3614C21.8794 31.1445 22.3001 30.723 22.3001 30.2041C22.3001 29.6851 21.8794 29.2637 21.3614 29.2637H21.3586Z" fill="black"/>
<path d="M49.8504 29.2501C49.1235 28.6824 48.2793 28.433 47.6583 28.3728L47.5381 28.3613H47.478H43.1167C42.6302 28.3613 42.2295 28.7312 42.1837 29.2071L42.178 29.3046V34.7606H40.2749C39.7569 34.7577 39.3334 35.1763 39.3334 35.6952C39.3334 36.1826 39.6997 36.584 40.1748 36.6327L40.2721 36.6385H42.178V37.3438H40.2062C39.6883 37.3438 39.2676 37.7652 39.2676 38.2842C39.2676 38.8031 39.6883 39.2245 40.2062 39.2245H42.178V41.5755C42.178 42.0945 42.5987 42.5159 43.1167 42.5159C43.6346 42.5159 44.0553 42.0945 44.0553 41.5755V39.2245H46.7311L46.8255 39.2188C47.3006 39.1701 47.6698 38.7687 47.6698 38.2813C47.6698 37.7939 47.3006 37.3925 46.8255 37.3466L46.7311 37.3409H44.0553V36.6413C45.6236 36.6413 47.0688 36.6413 47.4923 36.6356L47.6325 36.6299C48.3509 36.5783 49.2266 36.2228 49.9334 35.592C50.7233 34.8867 51.3414 33.8058 51.3185 32.3522C51.2956 30.9015 50.6632 29.8895 49.8476 29.253L49.8504 29.2501ZM48.6885 34.1843C48.2564 34.5685 47.767 34.729 47.5124 34.752H47.4637C47.0516 34.7606 45.6179 34.7606 44.0553 34.7606V30.2421H47.4351C47.7613 30.2679 48.2764 30.4084 48.6971 30.7352C49.0863 31.0391 49.4297 31.5294 49.444 32.3809C49.4584 33.2296 49.1149 33.8058 48.6885 34.1843Z" fill="black"/>
<path d="M42.2892 11.8384H44.3554V13.9084C44.3554 14.4274 44.7761 14.8488 45.2941 14.8488C45.8121 14.8488 46.2328 14.4274 46.2328 13.9084V11.8384H48.299C48.817 11.8384 49.2376 11.417 49.2376 10.898C49.2376 10.3791 48.817 9.95766 48.299 9.95766H46.2328V7.88766C46.2328 7.36872 45.8121 6.94727 45.2941 6.94727C44.7761 6.94727 44.3554 7.36872 44.3554 7.88766V9.95766H42.2892C41.7713 9.95766 41.3506 10.3791 41.3506 10.898C41.3506 11.417 41.7713 11.8384 42.2892 11.8384Z" fill="black"/>
</g>
<path d="M291.906 32.379C290.315 32.379 288.898 32.059 287.655 31.419C286.411 30.7607 285.433 29.8556 284.72 28.7036C284.025 27.5516 283.678 26.2442 283.678 24.7813C283.678 23.3002 284.025 21.9927 284.72 20.859C285.433 19.707 286.411 18.811 287.655 18.171C288.898 17.5127 290.315 17.1836 291.906 17.1836C293.461 17.1836 294.814 17.5127 295.966 18.171C297.118 18.811 297.968 19.7345 298.517 20.9413L295.198 22.7242C294.814 22.0293 294.329 21.5173 293.744 21.1882C293.177 20.859 292.555 20.6945 291.879 20.6945C291.147 20.6945 290.489 20.859 289.904 21.1882C289.319 21.5173 288.853 21.9836 288.505 22.587C288.176 23.1905 288.011 23.9219 288.011 24.7813C288.011 25.6407 288.176 26.3722 288.505 26.9756C288.853 27.579 289.319 28.0453 289.904 28.3745C290.489 28.7036 291.147 28.8682 291.879 28.8682C292.555 28.8682 293.177 28.7127 293.744 28.4019C294.329 28.0727 294.814 27.5516 295.198 26.8385L298.517 28.6487C297.968 29.8373 297.118 30.7607 295.966 31.419C294.814 32.059 293.461 32.379 291.906 32.379Z" fill="black"/>
<path d="M260.382 32.1596V17.403H264.633V22.8339H268.967V26.5367H264.633V32.1596H260.382ZM274.343 32.379C272.825 32.379 271.472 32.0499 270.284 31.3916C269.095 30.7333 268.162 29.8373 267.486 28.7036C266.809 27.5516 266.471 26.2442 266.471 24.7813C266.471 23.3002 266.809 21.9927 267.486 20.859C268.162 19.707 269.095 18.811 270.284 18.171C271.472 17.5127 272.825 17.1836 274.343 17.1836C275.861 17.1836 277.205 17.5127 278.375 18.171C279.564 18.811 280.496 19.707 281.173 20.859C281.849 21.9927 282.188 23.3002 282.188 24.7813C282.188 26.2442 281.849 27.5516 281.173 28.7036C280.496 29.8556 279.564 30.7607 278.375 31.419C277.205 32.059 275.861 32.379 274.343 32.379ZM274.343 28.8682C275.038 28.8682 275.65 28.7036 276.181 28.3745C276.729 28.0453 277.159 27.579 277.47 26.9756C277.799 26.3539 277.964 25.6224 277.964 24.7813C277.964 23.9219 277.799 23.1905 277.47 22.587C277.159 21.9836 276.729 21.5173 276.181 21.1882C275.65 20.859 275.038 20.6945 274.343 20.6945C273.666 20.6945 273.045 20.859 272.478 21.1882C271.929 21.5173 271.49 21.9836 271.161 22.587C270.85 23.1905 270.695 23.9219 270.695 24.7813C270.695 25.6224 270.85 26.3539 271.161 26.9756C271.49 27.579 271.929 28.0453 272.478 28.3745C273.045 28.7036 273.666 28.8682 274.343 28.8682Z" fill="black"/>
<path d="M240.523 32.1334L240.743 28.6226C240.853 28.6409 240.962 28.6592 241.072 28.6774C241.182 28.6774 241.282 28.6774 241.374 28.6774C241.886 28.6774 242.288 28.5312 242.581 28.2386C242.873 27.946 243.093 27.5529 243.239 27.0592C243.385 26.5472 243.486 25.9712 243.541 25.3312C243.614 24.6912 243.669 24.0237 243.705 23.3289L243.925 17.4043H256.542V32.1609H252.263V19.8729L253.223 20.9152H246.75L247.655 19.818L247.463 23.5209C247.408 24.8374 247.298 26.0443 247.134 27.1414C246.987 28.2386 246.741 29.1894 246.393 29.994C246.046 30.7803 245.579 31.3929 244.994 31.8317C244.409 32.2523 243.659 32.4626 242.745 32.4626C242.416 32.4626 242.069 32.4352 241.703 32.3803C241.337 32.3254 240.944 32.2432 240.523 32.1334Z" fill="black"/>
<path d="M220.733 32.1609V12.9609H238.233V32.1609H233.817V15.5667L234.832 16.5815H224.135L225.149 15.5667V32.1609H220.733Z" fill="black"/>
<path d="M205.463 32.1596V29.2796L205.188 28.6487V23.4922C205.188 22.5779 204.905 21.8647 204.338 21.3527C203.789 20.8407 202.939 20.5847 201.787 20.5847C201.001 20.5847 200.224 20.7127 199.456 20.9687C198.706 21.2065 198.066 21.5356 197.536 21.9562L196 18.9665C196.804 18.3996 197.773 17.9607 198.907 17.6499C200.041 17.339 201.193 17.1836 202.363 17.1836C204.612 17.1836 206.359 17.7139 207.602 18.7744C208.845 19.835 209.467 21.4899 209.467 23.739V32.1596H205.463ZM200.964 32.379C199.812 32.379 198.825 32.187 198.002 31.803C197.179 31.4007 196.548 30.8613 196.109 30.1847C195.671 29.5082 195.451 28.7493 195.451 27.9082C195.451 27.0305 195.661 26.2625 196.082 25.6042C196.521 24.9459 197.207 24.4339 198.139 24.0682C199.072 23.6842 200.288 23.4922 201.787 23.4922H205.709V25.9882H202.253C201.248 25.9882 200.553 26.1527 200.169 26.4819C199.803 26.811 199.62 27.2224 199.62 27.7162C199.62 28.2647 199.831 28.7036 200.251 29.0327C200.69 29.3436 201.284 29.499 202.034 29.499C202.747 29.499 203.387 29.3344 203.954 29.0053C204.521 28.6579 204.932 28.155 205.188 27.4967L205.847 29.4716C205.536 30.4225 204.969 31.1447 204.146 31.6384C203.323 32.1322 202.263 32.379 200.964 32.379Z" fill="black"/>
<path d="M190.025 32.1609L185.088 25.1666L188.572 23.1094L195.072 32.1609H190.025ZM179.575 32.1609V17.4043H183.854V32.1609H179.575ZM182.592 26.5654V23.1369H187.749V26.5654H182.592ZM188.983 25.2763L184.979 24.8374L190.163 17.4043H194.716L188.983 25.2763Z" fill="black"/>
<path d="M163.291 28.65L162.358 29.6374V17.4043H166.637V29.6374L165.65 28.65H172.452L171.492 29.6374V17.4043H175.743V32.1609H153.225V17.4043H157.476V29.6374L156.516 28.65H163.291Z" fill="black"/>
<path d="M145.777 32.1596V29.2796L145.503 28.6487V23.4922C145.503 22.5779 145.219 21.8647 144.652 21.3527C144.104 20.8407 143.254 20.5847 142.102 20.5847C141.315 20.5847 140.538 20.7127 139.77 20.9687C139.02 21.2065 138.38 21.5356 137.85 21.9562L136.314 18.9665C137.119 18.3996 138.088 17.9607 139.222 17.6499C140.355 17.339 141.507 17.1836 142.678 17.1836C144.927 17.1836 146.673 17.7139 147.916 18.7744C149.16 19.835 149.782 21.4899 149.782 23.739V32.1596H145.777ZM141.279 32.379C140.127 32.379 139.139 32.187 138.316 31.803C137.494 31.4007 136.863 30.8613 136.424 30.1847C135.985 29.5082 135.766 28.7493 135.766 27.9082C135.766 27.0305 135.976 26.2625 136.396 25.6042C136.835 24.9459 137.521 24.4339 138.454 24.0682C139.386 23.6842 140.602 23.4922 142.102 23.4922H146.024V25.9882H142.568C141.562 25.9882 140.867 26.1527 140.483 26.4819C140.118 26.811 139.935 27.2224 139.935 27.7162C139.935 28.2647 140.145 28.7036 140.566 29.0327C141.004 29.3436 141.599 29.499 142.348 29.499C143.062 29.499 143.702 29.3344 144.268 29.0053C144.835 28.6579 145.247 28.155 145.503 27.4967L146.161 29.4716C145.85 30.4225 145.283 31.1447 144.46 31.6384C143.638 32.1322 142.577 32.379 141.279 32.379Z" fill="black"/>
<path d="M114.854 32.1609V17.4043H119.324L124.892 27.498H123.11L129.062 17.4043H133.066L133.121 32.1609H129.254V21.7929L129.912 22.2317L124.838 30.7346H123.027L117.926 21.93L118.721 21.738V32.1609H114.854Z" fill="black"/>
<path d="M104.093 32.379C102.521 32.379 101.122 32.0499 99.8969 31.3916C98.69 30.7333 97.73 29.8373 97.0169 28.7036C96.322 27.5516 95.9746 26.2442 95.9746 24.7813C95.9746 23.3002 96.322 21.9927 97.0169 20.859C97.73 19.707 98.69 18.811 99.8969 18.171C101.122 17.5127 102.521 17.1836 104.093 17.1836C105.648 17.1836 107.037 17.5127 108.263 18.171C109.488 18.811 110.448 19.6979 111.143 20.8316C111.837 21.9653 112.185 23.2819 112.185 24.7813C112.185 26.2442 111.837 27.5516 111.143 28.7036C110.448 29.8373 109.488 30.7333 108.263 31.3916C107.037 32.0499 105.648 32.379 104.093 32.379ZM104.093 28.8682C104.807 28.8682 105.447 28.7036 106.013 28.3745C106.58 28.0453 107.028 27.579 107.357 26.9756C107.687 26.3539 107.851 25.6224 107.851 24.7813C107.851 23.9219 107.687 23.1905 107.357 22.587C107.028 21.9836 106.58 21.5173 106.013 21.1882C105.447 20.859 104.807 20.6945 104.093 20.6945C103.38 20.6945 102.74 20.859 102.173 21.1882C101.607 21.5173 101.149 21.9836 100.802 22.587C100.473 23.1905 100.308 23.9219 100.308 24.7813C100.308 25.6224 100.473 26.3539 100.802 26.9756C101.149 27.579 101.607 28.0453 102.173 28.3745C102.74 28.7036 103.38 28.8682 104.093 28.8682Z" fill="black"/>
<path d="M87.8775 30.1861V16.5815H81.2946L81.2124 19.3792C81.1575 20.5678 81.0752 21.6924 80.9655 22.7529C80.8741 23.8135 80.7278 24.7827 80.5266 25.6604C80.3255 26.5198 80.0604 27.2512 79.7312 27.8547C79.4204 28.4581 79.0272 28.8878 78.5518 29.1438L73.8066 28.5404C74.4649 28.5587 75.0044 28.3301 75.4249 27.8547C75.8638 27.3792 76.2112 26.7118 76.4672 25.8524C76.7232 24.9747 76.9061 23.9507 77.0158 22.7804C77.1438 21.6101 77.2352 20.3392 77.2901 18.9678L77.5095 12.9609H92.2661V30.1861H87.8775ZM73.1758 36.1381L73.2032 28.5404H94.9541V36.1381H90.8398V32.1609H77.2901V36.1381H73.1758Z" fill="black"/>
<defs>
<clipPath id="clip0_3729_34787">
<rect width="58.2858" height="48" fill="white" transform="translate(0.0957031 0.548828)"/>
</clipPath>
</defs>
</svg>
