<svg width="20" height="21" viewBox="0 0 20 21" fill="none" xmlns="http://www.w3.org/2000/svg">
<path d="M10.3434 15.044L14.2809 17.544C14.7887 17.8643 15.4137 17.3877 15.2653 16.8018L14.1246 12.3174C14.0938 12.1931 14.0987 12.0626 14.1388 11.941C14.1789 11.8193 14.2525 11.7115 14.3512 11.6299L17.8824 8.68459C18.3434 8.30178 18.109 7.52834 17.5074 7.48928L12.8981 7.1924C12.7723 7.18508 12.6514 7.14129 12.5501 7.06637C12.4488 6.99145 12.3716 6.88865 12.3278 6.77053L10.609 2.4424C10.5635 2.31733 10.4806 2.20928 10.3716 2.13293C10.2626 2.05658 10.1327 2.01563 9.99963 2.01562C9.86654 2.01562 9.73667 2.05658 9.62765 2.13293C9.51863 2.20928 9.43575 2.31733 9.39025 2.4424L7.6715 6.77053C7.6277 6.88865 7.55044 6.99145 7.44915 7.06637C7.34787 7.14129 7.22696 7.18508 7.10119 7.1924L2.49182 7.48928C1.89026 7.52834 1.65588 8.30178 2.11682 8.68459L5.64807 11.6299C5.74677 11.7115 5.8204 11.8193 5.86048 11.941C5.90057 12.0626 5.90547 12.1931 5.87463 12.3174L4.81994 16.4737C4.64026 17.1768 5.39026 17.7471 5.99182 17.3643L9.65588 15.044C9.75863 14.9786 9.87787 14.9439 9.99963 14.9439C10.1214 14.9439 10.2406 14.9786 10.3434 15.044Z" fill="#F8C028"/>
</svg>
