<svg width="201" height="201" viewBox="0 0 201 201" fill="none" xmlns="http://www.w3.org/2000/svg">
<rect x="0.335938" y="0.921875" width="200" height="200" rx="40" fill="white"/>
<circle cx="144.334" cy="64.6445" r="25" stroke="black" stroke-width="5"/>
<circle cx="144.333" cy="129.858" r="32.3408" fill="#F8C028" stroke="black" stroke-width="5"/>
<path d="M31.8307 64.8516L31.0742 141.486H78.2076C83.1213 141.486 88.1646 143.343 91.0622 145.235C94.6325 147.567 102.963 142.737 104.548 141.486" stroke="#F8C028" stroke-width="7" stroke-miterlimit="1.08636" stroke-linecap="round" stroke-linejoin="round"/>
<path d="M26.498 71.5195V146.077H80.8387C85.7524 146.077 90.4911 150.635 95.0358 150.635C99.3 150.635 105.045 147.001 106.629 145.749" stroke="black" stroke-width="5" stroke-miterlimit="1.08636" stroke-linecap="round" stroke-linejoin="round"/>
<path d="M95.1858 127.793V73.9216C92.146 70.6007 84.1074 63.959 76.2717 63.959C68.4359 63.959 47.0001 63.959 37.2617 63.959V135.393H76.2717C88.1108 135.393 90.6411 140.459 95.1858 140.459C99.3 140.459 100.633 138.109 103.12 136.466" stroke="black" stroke-width="5" stroke-miterlimit="1.08636" stroke-linecap="round" stroke-linejoin="round"/>
<path d="M95.5748 73.912C98.6146 70.5911 103.954 65.4711 110.346 64.2617" stroke="black" stroke-width="5" stroke-miterlimit="1.08636" stroke-linecap="round"/>
<path d="M80.6094 80.959C73.6976 80.959 56.8733 80.959 48.2832 80.959" stroke="black" stroke-width="5" stroke-miterlimit="1.08636" stroke-linecap="round"/>
<path d="M80.6094 92.625C73.6976 92.625 56.8733 92.625 48.2832 92.625" stroke="black" stroke-width="5" stroke-miterlimit="1.08636" stroke-linecap="round"/>
<path d="M80.6094 104.291C73.6976 104.291 56.8733 104.291 48.2832 104.291" stroke="black" stroke-width="5" stroke-miterlimit="1.08636" stroke-linecap="round"/>
<path d="M80.6094 115.959C73.6976 115.959 56.8733 115.959 48.2832 115.959" stroke="black" stroke-width="5" stroke-miterlimit="1.08636" stroke-linecap="round"/>
<path d="M150.309 111.058L150.631 111.085C152.282 111.25 154.525 111.907 156.464 113.419C158.631 115.109 160.316 117.798 160.379 121.653C160.442 125.516 158.794 128.391 156.689 130.265C154.803 131.944 152.472 132.888 150.562 133.025L150.187 133.042C149.056 133.06 145.21 133.061 141.035 133.058V134.918H148.162L148.417 134.931C149.678 135.058 150.662 136.123 150.662 137.418C150.662 138.713 149.678 139.777 148.417 139.905L148.162 139.918H141.035V146.164C141.035 147.545 139.916 148.664 138.535 148.664C137.155 148.664 136.035 147.545 136.035 146.164V139.918H130.787C129.406 139.918 128.287 138.799 128.287 137.418C128.287 136.037 129.406 134.918 130.787 134.918H136.035V133.05L130.957 133.042L130.701 133.028C129.441 132.897 128.46 131.83 128.463 130.536C128.466 129.156 129.588 128.039 130.969 128.042L136.035 128.05V113.553L136.048 113.297C136.176 112.036 137.241 111.053 138.535 111.053H150.147L150.309 111.058ZM141.035 128.058C145.194 128.061 149.008 128.059 150.107 128.042L150.235 128.036C150.915 127.979 152.214 127.555 153.365 126.53C154.5 125.52 155.416 123.991 155.379 121.734C155.342 119.471 154.429 118.172 153.39 117.362C152.272 116.491 150.9 116.119 150.033 116.053H141.035V128.058Z" fill="black"/>
<path d="M144.334 54.1445C145.715 54.1445 146.834 55.2638 146.834 56.6445V62.1445H152.334C153.715 62.1445 154.834 63.2638 154.834 64.6445C154.834 66.0252 153.715 67.1445 152.334 67.1445H146.834V72.6445C146.834 74.0252 145.715 75.1445 144.334 75.1445C142.953 75.1445 141.834 74.0252 141.834 72.6445V67.1445H136.334C134.953 67.1445 133.834 66.0252 133.834 64.6445C133.834 63.2638 134.953 62.1445 136.334 62.1445H141.834V56.6445C141.834 55.2638 142.953 54.1445 144.334 54.1445Z" fill="black"/>
</svg>
