<svg width="201" height="201" viewBox="0 0 201 201" fill="none" xmlns="http://www.w3.org/2000/svg">
<rect x="0.335938" y="0.921875" width="200" height="200" rx="40" fill="white"/>
<circle cx="79.3332" cy="127.386" r="43.0646" fill="#F8C028" stroke="black" stroke-width="6.65792"/>
<path d="M87.291 102.353C89.5185 102.497 92.733 103.349 95.4873 105.496C98.3734 107.746 100.617 111.328 100.7 116.462C100.783 121.604 98.589 125.433 95.7871 127.928C93.2759 130.163 90.171 131.421 87.6289 131.604L87.1289 131.626C85.6238 131.65 80.5027 131.652 74.9424 131.647V134.124H84.4316L84.6035 134.129C86.3622 134.218 87.7607 135.672 87.7607 137.453C87.7607 139.234 86.3621 140.688 84.6035 140.777L84.4316 140.782H74.9424V149.1C74.9422 150.938 73.4515 152.428 71.6133 152.429C69.775 152.429 68.2844 150.938 68.2842 149.1V140.782H61.2959C59.4574 140.782 57.9669 139.292 57.9668 137.453C57.9668 135.615 59.4574 134.124 61.2959 134.124H68.2842V131.637C65.7359 131.632 63.3701 131.631 61.5215 131.626C59.6833 131.621 58.1968 130.127 58.2012 128.289C58.2058 126.451 59.7006 124.964 61.5391 124.969C63.393 124.973 65.7504 124.975 68.2842 124.979V105.675L68.2891 105.504C68.378 103.745 69.8322 102.346 71.6133 102.346H87.0762L87.291 102.353ZM74.9424 124.99C80.4802 124.995 85.5601 124.992 87.0234 124.969L87.1924 124.96C88.0968 124.884 89.8277 124.32 91.3604 122.955C92.8717 121.61 94.0916 119.574 94.043 116.569C93.994 113.556 92.7773 111.826 91.3936 110.747C89.9136 109.594 88.098 109.096 86.9434 109.004H74.9424V124.99Z" fill="black"/>
<circle cx="131.115" cy="64.6833" r="33.2896" stroke="black" stroke-width="6.65792"/>
<path d="M131.114 50.7012C132.895 50.7012 134.349 52.1003 134.438 53.8594L134.443 54.0303V61.3535H141.768L141.938 61.3584C143.697 61.4475 145.096 62.9017 145.097 64.6826C145.097 66.4637 143.697 67.9177 141.938 68.0068L141.768 68.0117H134.443V75.3359L134.438 75.5068C134.349 77.2658 132.895 78.665 131.114 78.665C129.333 78.6649 127.879 77.2657 127.79 75.5068L127.785 75.3359V68.0117H120.462C118.623 68.0117 117.133 66.5212 117.133 64.6826C117.133 62.9016 118.532 61.4474 120.291 61.3584L120.462 61.3535H127.785V54.0303C127.785 52.1919 129.276 50.7013 131.114 50.7012Z" fill="black"/>
</svg>
